<?xml version="1.0" encoding="UTF-8" standalone="no"?>
<svg
   xmlns:dc="http://purl.org/dc/elements/1.1/"
   xmlns:cc="http://creativecommons.org/ns#"
   xmlns:rdf="http://www.w3.org/1999/02/22-rdf-syntax-ns#"
   xmlns:svg="http://www.w3.org/2000/svg"
   xmlns="http://www.w3.org/2000/svg"
   id="svg8"
   version="1.1"
   viewBox="0 0 38.364613 7.9374998"
   height="30"
   width="145">
  <defs
     id="defs2" />
  <metadata
     id="metadata5">
    <rdf:RDF>
      <cc:Work
         rdf:about="">
        <dc:format>image/svg+xml</dc:format>
        <dc:type
           rdf:resource="http://purl.org/dc/dcmitype/StillImage" />
        <dc:title></dc:title>
      </cc:Work>
    </rdf:RDF>
  </metadata>
  <g
     transform="translate(0,-289.06251)"
     id="layer1">
    <g
       id="text3715"
       style="font-style:normal;font-weight:normal;font-size:10.58333302px;line-height:1.25;font-family:sans-serif;letter-spacing:0px;word-spacing:0px;fill:#000000;fill-opacity:1;stroke:none;stroke-width:0.26458332"
       aria-label="AQUILA">
      <path
         id="path10"
         style="font-style:normal;font-variant:normal;font-weight:500;font-stretch:normal;font-family:'Bai Jamjuree';-inkscape-font-specification:'Bai Jamjuree Medium';stroke-width:0.26458332"
         d="M 4.9138853,294.64816 H 1.8235521 l -0.7196666,1.94733 H 0.05613549 l 2.86808321,-7.40833 h 0.4550834 q 0.4550833,0 0.6455833,0.49741 l 2.6564166,6.91092 H 5.6441353 Z M 2.1198854,293.80149 H 4.617552 l -1.2382499,-3.34433 h -0.010583 z" />
      <path
         id="path12"
         style="fill:#4a9040;fill-opacity:1"
         d="m 13.454625,296.99766 -0.8255,-0.81492 q -0.677333,0.49742 -1.524,0.49742 H 9.9938749 q -0.7725833,0 -1.3546666,-0.33867 -0.5820833,-0.33867 -0.8995833,-0.9525 -0.3175,-0.61383 -0.3175,-1.42875 v -2.13783 q 0,-0.81492 0.3280833,-1.42875 0.3280833,-0.61384 0.92075,-0.9525 0.5926666,-0.33867 1.3546667,-0.33867 h 1.121833 q 0.772584,0 1.354667,0.33867 0.592666,0.33866 0.910166,0.9525 0.328084,0.61383 0.328084,1.42875 v 2.0955 q 0,0.889 -0.486834,1.59808 l 0.8255,0.81492 z m -2.370667,-1.21709 q 0.47625,0 0.867834,-0.26458 l -1.04775,-1.02658 0.635,-0.66675 1.005416,0.99483 q 0.1905,-0.40217 0.1905,-0.89958 v -2.07434 q 0,-0.83608 -0.4445,-1.3335 -0.433916,-0.508 -1.153583,-0.508 h -1.090083 q -0.7196671,0 -1.1747504,0.508 -0.4445,0.508 -0.4445,1.3335 v 2.0955 q 0,0.83609 0.4339167,1.34409 0.4339166,0.49741 1.1429997,0.49741 z" />
      <path
         id="path14"
         style="font-style:normal;font-variant:normal;font-weight:500;font-stretch:normal;font-family:'Bai Jamjuree';-inkscape-font-specification:'Bai Jamjuree Medium';stroke-width:0.26458332"
         d="m 17.497454,296.68016 q -0.719667,0 -1.27,-0.30692 -0.53975,-0.3175 -0.836084,-0.889 -0.296333,-0.5715 -0.296333,-1.31233 v -4.98475 h 1.005417 v 4.98475 q 0,0.71966 0.381,1.16416 0.391583,0.4445 1.016,0.4445 h 1.132416 q 0.624417,0 1.005417,-0.4445 0.391583,-0.4445 0.391583,-1.16416 v -4.98475 h 1.005417 v 4.98475 q 0,0.74083 -0.296334,1.31233 -0.296333,0.5715 -0.846666,0.889 -0.53975,0.30692 -1.259417,0.30692 z" />
      <path
         id="path16"
         style="font-style:normal;font-variant:normal;font-weight:500;font-stretch:normal;font-family:'Bai Jamjuree';-inkscape-font-specification:'Bai Jamjuree Medium';stroke-width:0.26458332"
         d="m 22.662103,289.18716 h 1.005417 v 7.40833 h -1.005417 z" />
      <path
         id="path18"
         style="font-style:normal;font-variant:normal;font-weight:500;font-stretch:normal;font-family:'Bai Jamjuree';-inkscape-font-specification:'Bai Jamjuree Medium';stroke-width:0.26458332"
         d="m 26.144005,296.59549 q -0.370417,0 -0.592667,-0.21167 -0.211667,-0.21166 -0.211667,-0.5715 v -6.62516 h 1.005417 v 6.51933 h 4.021667 v 0.889 z" />
      <path
         id="path20"
         style="font-style:normal;font-variant:normal;font-weight:500;font-stretch:normal;font-family:'Bai Jamjuree';-inkscape-font-specification:'Bai Jamjuree Medium';stroke-width:0.26458332"
         d="m 35.605486,294.64816 h -3.090333 l -0.719667,1.94733 h -1.04775 l 2.868084,-7.40833 h 0.455083 q 0.455083,0 0.645583,0.49741 l 2.656417,6.91092 h -1.037167 z m -2.794,-0.84667 h 2.497667 l -1.23825,-3.34433 h -0.01058 z" />
    </g>
  </g>
</svg>
