<?xml version="1.0" standalone="no"?>
<!DOCTYPE svg PUBLIC "-//W3C//DTD SVG 20010904//EN"
 "http://www.w3.org/TR/2001/REC-SVG-20010904/DTD/svg10.dtd">
<svg version="1.0" xmlns="http://www.w3.org/2000/svg"
 width="700.000000pt" height="700.000000pt" viewBox="0 0 700.000000 700.000000"
 preserveAspectRatio="xMidYMid meet">
<metadata>
Created by potrace 1.14, written by Peter Selinger 2001-2017
</metadata>
<g transform="translate(0.000000,700.000000) scale(0.100000,-0.100000)"
fill="#000000" stroke="none">
<path d="M3145 6733 c-21 -55 -142 -369 -166 -433 -15 -41 -36 -97 -47 -125
-82 -213 -330 -863 -349 -915 -13 -36 -28 -74 -33 -85 -5 -11 -41 -105 -80
-210 -40 -104 -82 -217 -95 -250 -13 -33 -76 -197 -140 -365 -64 -168 -127
-332 -140 -365 -13 -33 -49 -127 -79 -210 -31 -82 -61 -159 -66 -170 -5 -11
-30 -76 -55 -145 -26 -69 -117 -307 -202 -530 -185 -483 -291 -761 -339 -890
-20 -52 -42 -109 -50 -127 -8 -17 -14 -34 -14 -37 0 -3 -20 -56 -44 -118 -24
-62 -99 -257 -166 -433 -67 -176 -173 -453 -235 -615 -62 -162 -115 -304 -119
-316 l-6 -21 455 1 455 0 11 39 c6 22 14 47 19 56 5 9 25 63 45 121 56 160
157 446 259 733 30 83 80 224 111 312 53 151 91 256 120 335 l13 35 1439 3
1439 2 31 -92 c17 -51 55 -158 83 -238 29 -80 65 -181 80 -225 25 -71 71 -200
146 -410 14 -38 27 -74 28 -80 2 -5 6 -17 9 -25 3 -8 17 -46 31 -85 21 -61 44
-127 145 -409 11 -32 23 -62 27 -65 3 -3 206 -6 450 -7 400 0 444 1 439 15
-22 57 -100 263 -112 296 -14 37 -43 115 -248 650 -42 110 -92 243 -111 295
-19 52 -39 104 -44 115 -10 20 -146 377 -180 470 -10 28 -46 122 -80 210 -34
88 -88 230 -120 315 -32 85 -97 256 -145 380 -48 124 -120 315 -162 425 -41
110 -81 214 -88 230 -7 17 -36 93 -65 170 -28 77 -55 149 -60 160 -8 17 -99
255 -195 510 -35 94 -613 1608 -623 1636 -6 13 -20 51 -32 84 -13 33 -27 71
-32 85 -6 14 -36 93 -68 175 l-57 150 -490 3 c-461 2 -491 1 -498 -15z m514
-880 c7 -21 35 -96 61 -168 26 -71 73 -200 105 -285 31 -85 61 -166 66 -180 6
-13 29 -74 51 -135 22 -60 69 -189 105 -285 125 -337 193 -520 397 -1075 114
-308 211 -569 216 -580 25 -56 150 -408 146 -412 -6 -6 -2325 -7 -2331 -1 -3
3 90 265 164 458 16 41 57 152 91 245 34 94 74 204 90 245 382 1035 572 1551
611 1660 27 74 56 151 63 170 16 40 107 286 127 343 7 20 16 37 19 37 3 0 12
-17 19 -37z"/>
</g>
</svg>
